<svg xmlns="http://www.w3.org/2000/svg" viewBox="0 0 48 48" width="48" height="48" role="img" aria-label="Google login icon">
  <circle cx="24" cy="24" r="22" fill="#ffffff" stroke="#e0e0e0" stroke-width="2"/>
  <path fill="#4285f4" d="M24 10c7.73 0 14 6.27 14 14 0 .94-.09 1.86-.27 2.75H24v-5.5h8.2c-.52-2.52-2.8-4.37-5.95-4.37-3.64 0-6.6 2.93-6.6 6.54 0 3.62 2.96 6.54 6.6 6.54 1.99 0 3.66-.73 4.91-1.9l3.86 3.73C32.21 33.83 28.87 35 25 35c-6.9 0-12.5-5.54-12.5-12.38C12.5 15.79 18.1 10 24 10z"/>
  <path fill="#34a853" d="M13.52 27.3l4.9-3.57c.79 2.18 2.93 3.73 5.58 3.73 1.38 0 2.64-.39 3.66-1.07l3.87 3.73C29.7 31.97 27.46 33 24 33c-4.73 0-8.72-3.08-10.48-7.2z" opacity=".9"/>
  <path fill="#fbbc04" d="M24 14.5c2.55 0 4.86.97 6.57 2.56l-3.75 3.6c-.73-.64-1.7-1.04-2.82-1.04-2.66 0-4.86 2.14-4.86 4.8 0 .66.14 1.28.38 1.85l-4.9 3.57C13.36 27.97 12.5 26.06 12.5 24c0-5.25 4.75-9.5 11.5-9.5z" opacity=".85"/>
  <path fill="#ea4335" d="M34.43 31.08c-1.81 1.76-4.69 3.42-8.93 3.42-3.87 0-7.21-1.17-9.73-3.12l4.9-3.57c1.02.68 2.28 1.07 3.66 1.07 2.33 0 4.3-1.22 5.34-3.02l4.76 3.22z" opacity=".9"/>
</svg>
